<?xml version="1.0" standalone="no"?><!DOCTYPE svg PUBLIC "-//W3C//DTD SVG 1.1//EN" "http://www.w3.org/Graphics/SVG/1.1/DTD/svg11.dtd"><svg t="1548833121356" class="icon" style="" viewBox="0 0 1024 1024" version="1.1" xmlns="http://www.w3.org/2000/svg" p-id="6973" xmlns:xlink="http://www.w3.org/1999/xlink" width="16" height="16"><defs><style type="text/css"></style></defs><path d="M430.08 558.08L153.6 834.56V665.6c0-15.36-10.24-25.6-25.6-25.6s-25.6 10.24-25.6 25.6v230.4c0 7.68 2.56 12.8 7.68 17.92 5.12 5.12 10.24 7.68 17.92 7.68h230.4c15.36 0 25.6-10.24 25.6-25.6s-10.24-25.6-25.6-25.6H189.44l276.48-276.48-35.84-35.84zM913.92 110.08c-5.12-5.12-12.8-7.68-17.92-7.68h-230.4c-15.36 0-25.6 10.24-25.6 25.6s10.24 25.6 25.6 25.6h168.96L558.08 430.08l35.84 35.84L870.4 189.44V358.4c0 15.36 10.24 25.6 25.6 25.6s25.6-10.24 25.6-25.6V128c0-7.68-2.56-12.8-7.68-17.92z" p-id="6974"></path></svg>