<?xml version="1.0" standalone="no"?><!DOCTYPE svg PUBLIC "-//W3C//DTD SVG 1.1//EN" "http://www.w3.org/Graphics/SVG/1.1/DTD/svg11.dtd"><svg t="1551429372863" class="icon" style="" viewBox="0 0 1024 1024" version="1.1" xmlns="http://www.w3.org/2000/svg" p-id="11104" xmlns:xlink="http://www.w3.org/1999/xlink" width="16" height="16"><defs><style type="text/css"></style></defs><path d="M512 192C229.216 192 0 512 0 512s229.216 320 512 320 512-320 512-320S794.784 192 512 192zM512 704c-106.016 0-192-85.984-192-192s85.984-192 192-192 192 85.984 192 192S618.016 704 512 704zM512 384c-70.688 0-128 57.312-128 128s57.312 128 128 128 128-57.312 128-128S582.688 384 512 384z" p-id="11105"></path></svg>